# xmcd CD database file
#
# Track frame offsets:
#	150
#	13927
#	29132
#	46327
#	60185
#	79665
#	89435
#	103045
#	116370
#	144520
#	157690
#	167980
#
# Disc length: 2379 seconds
#
# Revision: 3
# Processed by: cddbd v1.5.2PL0 Copyright (c) Steve Scherf et al.
# Submitted via: ACXtractor (MTCDDB.DLL V2003.12.21)
#
DISCID=9209490c
DTITLE=Mississippi Blues Band - Bagayo
DYEAR=1995
DGENRE=Blues
TTITLE0=Blues del Equipaje
TTITLE1=Matadero
TTITLE2=Por Fin Te Fuiste Mabel
TTITLE3=Mala Transa
TTITLE4=Blues De Juan
TTITLE5=Hache Roja (Villa del Plata)
TTITLE6=Un Trago Para Ver Mejor
TTITLE7=Que Mujer !
TTITLE8=Tus Amigos
TTITLE9=Piso De Madera
TTITLE10=Zydeco Cha Cha
TTITLE11=Nocturno A Mi Barrio
EXTD=ID3G:   0 YEAR: 1995
EXTT0=
EXTT1=
EXTT2=
EXTT3=
EXTT4=
EXTT5=
EXTT6=
EXTT7=
EXTT8=
EXTT9=
EXTT10=
EXTT11=(Anibal Troilo]\nHomenaje a Pichuco Troilo.
PLAYORDER=
